REM DIRINDEX 1\2\4,1\2\5,1\3\6,1\3\7,1\3\8
REM DIRNAME cjc092,folder01,folder02,folder03,folder04,folder05,folder06,folder07
TITLE ""
FILE "LEVEL1-020-midashigo.mp3" MP3
  TRACK 01 AUDIO
    TITLE "0:"
    INDEX 01 00:00:00
  TRACK 02 AUDIO
    TITLE "6:cjc092_0807"
    INDEX 01 00:00:07
  TRACK 03 AUDIO
    TITLE "0:"
    INDEX 01 00:03:17
  TRACK 04 AUDIO
    TITLE "7:cjc092_0808"
    INDEX 01 00:03:72
  TRACK 05 AUDIO
    TITLE "8:cjc092_0809"
    INDEX 01 00:05:24
  TRACK 06 AUDIO
    TITLE "0:"
    INDEX 01 00:07:70
  TRACK 07 AUDIO
    TITLE "7:cjc092_0810"
    INDEX 01 00:08:24
  TRACK 08 AUDIO
    TITLE "8:cjc092_0811"
    INDEX 01 00:09:55
  TRACK 09 AUDIO
    TITLE "0:"
    INDEX 01 00:14:47
  TRACK 10 AUDIO
    TITLE "7:cjc092_0812"
    INDEX 01 00:15:03
  TRACK 11 AUDIO
    TITLE "8:cjc092_0813"
    INDEX 01 00:16:30
  TRACK 12 AUDIO
    TITLE "0:"
    INDEX 01 00:18:68
  TRACK 13 AUDIO
    TITLE "7:cjc092_0814"
    INDEX 01 00:19:22
  TRACK 14 AUDIO
    TITLE "8:cjc092_0815"
    INDEX 01 00:20:49
  TRACK 15 AUDIO
    TITLE "0:"
    INDEX 01 00:22:01
  TRACK 16 AUDIO
    TITLE "7:cjc092_0816"
    INDEX 01 00:22:32
  TRACK 17 AUDIO
    TITLE "8:cjc092_0817"
    INDEX 01 00:23:57
  TRACK 18 AUDIO
    TITLE "0:"
    INDEX 01 00:24:67
  TRACK 19 AUDIO
    TITLE "7:cjc092_0818"
    INDEX 01 00:25:25
  TRACK 20 AUDIO
    TITLE "8:cjc092_0819"
    INDEX 01 00:26:56
  TRACK 21 AUDIO
    TITLE "0:"
    INDEX 01 00:28:17
  TRACK 22 AUDIO
    TITLE "7:cjc092_0820"
    INDEX 01 00:28:51
  TRACK 23 AUDIO
    TITLE "8:cjc092_0821"
    INDEX 01 00:30:06
  TRACK 24 AUDIO
    TITLE "0:"
    INDEX 01 00:30:69
  TRACK 25 AUDIO
    TITLE "7:cjc092_0822"
    INDEX 01 00:31:26
  TRACK 26 AUDIO
    TITLE "8:cjc092_0823"
    INDEX 01 00:32:41
  TRACK 27 AUDIO
    TITLE "0:"
    INDEX 01 00:38:08
  TRACK 28 AUDIO
    TITLE "7:cjc092_0824"
    INDEX 01 00:38:37
  TRACK 29 AUDIO
    TITLE "8:cjc092_0825"
    INDEX 01 00:39:52
  TRACK 30 AUDIO
    TITLE "0:"
    INDEX 01 00:41:44
  TRACK 31 AUDIO
    TITLE "7:cjc092_0826"
    INDEX 01 00:41:65
  TRACK 32 AUDIO
    TITLE "8:cjc092_0827"
    INDEX 01 00:43:27
  TRACK 33 AUDIO
    TITLE "0:"
    INDEX 01 00:48:02
  TRACK 34 AUDIO
    TITLE "7:cjc092_0828"
    INDEX 01 00:48:36
  TRACK 35 AUDIO
    TITLE "8:cjc092_0829"
    INDEX 01 00:49:59
  TRACK 36 AUDIO
    TITLE "0:"
    INDEX 01 00:56:71
  TRACK 37 AUDIO
    TITLE "7:cjc092_0830"
    INDEX 01 00:57:23
  TRACK 38 AUDIO
    TITLE "8:cjc092_0831"
    INDEX 01 00:58:48
  TRACK 39 AUDIO
    TITLE "0:"
    INDEX 01 01:02:46
  TRACK 40 AUDIO
    TITLE "7:cjc092_0832"
    INDEX 01 01:03:04
  TRACK 41 AUDIO
    TITLE "8:cjc092_0833"
    INDEX 01 01:04:41
  TRACK 42 AUDIO
    TITLE "0:"
    INDEX 01 01:05:73
  TRACK 43 AUDIO
    TITLE "7:cjc092_0834"
    INDEX 01 01:06:32
  TRACK 44 AUDIO
    TITLE "8:cjc092_0835"
    INDEX 01 01:07:49
  TRACK 45 AUDIO
    TITLE "0:"
    INDEX 01 01:09:73
  TRACK 46 AUDIO
    TITLE "7:cjc092_0836"
    INDEX 01 01:10:31
  TRACK 47 AUDIO
    TITLE "8:cjc092_0837"
    INDEX 01 01:11:58
  TRACK 48 AUDIO
    TITLE "0:"
    INDEX 01 01:13:73
  TRACK 49 AUDIO
    TITLE "7:cjc092_0838"
    INDEX 01 01:14:31
  TRACK 50 AUDIO
    TITLE "8:cjc092_0839"
    INDEX 01 01:15:60
  TRACK 51 AUDIO
    TITLE "0:"
    INDEX 01 01:17:32
  TRACK 52 AUDIO
    TITLE "7:cjc092_0840"
    INDEX 01 01:17:65
  TRACK 53 AUDIO
    TITLE "8:cjc092_0841"
    INDEX 01 01:19:01
  TRACK 54 AUDIO
    TITLE "0:"
    INDEX 01 01:21:16
  TRACK 55 AUDIO
    TITLE "7:cjc092_0842"
    INDEX 01 01:21:51
  TRACK 56 AUDIO
    TITLE "8:cjc092_0843"
    INDEX 01 01:23:03
  TRACK 57 AUDIO
    TITLE "0:"
    INDEX 01 01:27:12
  TRACK 58 AUDIO
    TITLE "7:cjc092_0844"
    INDEX 01 01:27:46
  TRACK 59 AUDIO
    TITLE "8:cjc092_0845"
    INDEX 01 01:28:59
  TRACK 60 AUDIO
    TITLE "0:"
    INDEX 01 01:30:07
